<svg xmlns="http://www.w3.org/2000/svg" xmlns:xlink="http://www.w3.org/1999/xlink" version="1.1" x="0px" y="0px" fill="lime" height="60" viewBox="0 0 1000 1000" enable-background="new 0 0 1000 1000" xml:space="preserve">
    <g><g transform="translate(0.000000,511.000000) scale(0.100000,-0.100000)"><path d="M4799,1883.6C1444,663.1,158.1,186.7,133.5,154c-51.1-61.3-45-139,26.6-319c251.5-635.8,668.5-1251.2,1179.7-1748c1357.5-1316.6,3316.1-1762.3,5117.3-1163.3C7736.9-2651,8783.7-1739.2,9378.7-528.9c194.2,396.6,284.2,633.8,378.2,1005.9c118.6,472.3,143.1,689,143.1,1243c0,639.9-51.1,979.3-237.1,1562c-67.5,212.6-96.1,255.6-182,276C9444.1,3566.2,8135.6,3100.1,4799,1883.6z M9378.7,3024.4c128.8-419.1,194.2-965,177.9-1467.9c-34.8-989.5-353.7-1889.1-954.8-2684.4c-437.5-580.6-999.8-1046.8-1664.2-1373.9c-1275.7-629.7-2774.3-650.1-4050.1-55.2C1895.9-2094.9,1125.1-1348.7,646.7-387.8C569-230.4,505.6-91.3,505.6-77c0,14.3,51.1,45,112.4,67.5c214.7,79.7,188.1,96.1,331.2-200.4c410.9-856.7,1108.1-1551.8,1993.4-1985.2c1034.5-507,2169.2-584.7,3275.2-222.9c1645.8,539.7,2800.9,1983.2,2978.8,3729.1c47,468.2-6.1,1089.7-134.9,1553.8l-49.1,177.9l65.4,24.5c173.8,69.5,231,89.9,243.3,92C9329.6,3161.4,9356.2,3100.1,9378.7,3024.4z M8714.2,2809.8c75.7-257.6,153.3-756.5,153.3-993.6v-102.2l-126.8,8.2c-71.6,6.1-766.7,36.8-1547.7,71.6c-781,32.7-1422.9,63.4-1425,65.4C5762,1865.2,8626.3,2912,8657,2914C8671.3,2916.1,8695.8,2867,8714.2,2809.8z M5363.3,1624c-30.7-198.3-220.8-388.4-417.1-417.1c-132.9-20.4-302.6,20.4-390.5,90c-38.8,30.7-73.6,65.4-77.7,77.7c-6.1,16.3,805.5,329.2,870.9,333.2C5369.4,1709.8,5373.5,1689.4,5363.3,1624z M7405.7,1433.8c697.2-28.6,1306.4-57.2,1355.5-63.4c102.2-12.3,102.2-14.3,55.2-286.2c-137-793.3-494.8-1533.4-995.7-2064.9l-130.8-137L6626.8,41.5L5565.7,1200.8l71.6,153.3l71.6,155.4l214.7-12.3C6042.1,1491.1,6708.6,1462.5,7405.7,1433.8z M4011.9,1180.3c-34.8-30.7-507-464.1-1052.9-963c-545.9-498.8-1032.5-946.6-1085.6-995.7l-92-87.9l-134.9,177.9c-73.6,100.2-175.8,249.4-226.9,333.2c-92,149.2-259.7,488.6-259.7,525.4c0,14.3,2837.7,1063.1,2892.9,1067.2C4063,1239.6,4044.6,1213,4011.9,1180.3z M4590.5,887.9c57.3-16.4,59.3,83.8-16.4-1600.8c-32.7-752.4-61.3-1414.8-61.3-1470v-98.1l-116.5,12.3c-817.8,94-1649.9,476.4-2263.2,1036.6l-118.6,110.4L3175.7-56.6L4337,1008.6l104.3-55.2C4498.5,924.8,4563.9,894.1,4590.5,887.9z M6422.3-246.7l1014.1-1108.1l-106.3-85.9c-441.6-351.7-1097.9-654.2-1682.6-772.8c-222.8-47-758.5-100.2-778.9-77.7c-8.2,6.1,16.4,678.8,51.1,1490.4c34.8,813.7,63.4,1517,63.4,1564c0,85.9,0,85.9,108.3,116.5c57.3,18.4,128.8,47,157.4,63.4c47,26.6,55.2,24.5,104.3-26.6C5381.7,885.9,5864.2,362.5,6422.3-246.7z"/></g></g>
</svg>